Coordinates
version=1
nRows=13
nColumns=40
inDegrees=yes

Units are S.I. units (second, meters, Newtons, ...)
If the header above contains a line with 'inDegrees', this indicates whether rotational values are in degrees (yes) or radians (no).

endheader
time	pelvis_tilt	pelvis_list	pelvis_rotation	pelvis_tx	pelvis_ty	pelvis_tz	hip_flexion_r	hip_adduction_r	hip_rotation_r	knee_angle_r	knee_angle_r_beta	ankle_angle_r	subtalar_angle_r	mtp_angle_r	hip_flexion_l	hip_adduction_l	hip_rotation_l	knee_angle_l	knee_angle_l_beta	ankle_angle_l	subtalar_angle_l	mtp_angle_l	lumbar_extension	lumbar_bending	lumbar_rotation	arm_flex_r	arm_add_r	arm_rot_r	elbow_flex_r	pro_sup_r	wrist_flex_r	wrist_dev_r	arm_flex_l	arm_add_l	arm_rot_l	elbow_flex_l	pro_sup_l	wrist_flex_l	wrist_dev_l
      3.89166667	    -28.03721258	     -4.77448082	      2.78496454	     -0.31311566	      1.19377126	      0.04757866	     92.18229940	     -6.35638062	     -0.47107212	     84.76166174	      1.47937008	     -0.76773989	    -28.73385983	      0.00000000	     61.42508823	     -7.23685497	      7.18004026	     58.01322771	      1.01252183	     -9.11562014	    -14.83924622	      0.00000000	    -47.80204567	      8.64514642	      1.47713180	     89.90449814	     -8.24586059	     15.99316387	     34.67883985	     85.65926357	      0.00000000	      0.00000000	     89.93733985	    -11.24507104	     30.56670169	     30.35084862	     71.55941737	      0.00000000	      0.00000000
      3.90000000	    -27.94070557	     -4.44311622	      3.00854364	     -0.31331383	      1.19380423	      0.04733528	     91.28797639	     -6.53714203	     -0.28280772	     82.92814133	      1.44736911	     -0.72840974	    -28.70372729	      0.00000000	     62.04473080	     -6.87204017	      7.09578149	     59.96244190	      1.04654204	     -8.89468236	    -14.83864387	      0.00000000	    -47.86620020	      8.46694005	      1.04844880	     89.90388716	     -8.24696788	     15.94939538	     34.68255642	     85.64814332	      0.00000000	      0.00000000	     89.93799407	    -11.26855350	     30.49460251	     30.48421891	     71.58764864	      0.00000000	      0.00000000
      3.90833333	    -27.88703926	     -4.02143226	      3.22155548	     -0.31346095	      1.19414775	      0.04691476	     90.30124816	     -6.79608049	     -0.09649404	     80.96880651	      1.41317227	     -0.61498191	    -28.74616506	      0.00000000	     62.61998572	     -6.41216401	      6.99672438	     61.74246277	      1.07760926	     -8.81434085	    -14.78416935	      0.00000000	    -47.91060483	      8.22056845	      0.64114076	     89.90367278	     -8.34348075	     15.89837396	     34.63426870	     85.63567646	      0.00000000	      0.00000000	     89.93958634	    -11.18653656	     30.48719906	     30.60004473	     71.60716724	      0.00000000	      0.00000000
      3.91666667	    -27.82202893	     -4.63636286	      3.25912174	     -0.31363826	      1.19369825	      0.04767422	     89.16581763	     -6.53078876	     -0.85881605	     79.02540151	      1.37925345	     -0.69811828	    -29.38303582	      0.00000000	     63.70396877	     -6.88388429	      7.58565160	     64.10944365	      1.11892087	     -7.85724812	    -14.23573941	      0.00000000	    -47.96979123	      8.60550060	      1.02136887	     89.90299073	     -8.28998481	     15.82298789	     34.58761633	     85.60375781	      0.00000000	      0.00000000	     89.93874714	    -11.20671727	     30.24506804	     30.70719225	     71.98866834	      0.00000000	      0.00000000
      3.92500000	    -27.74561770	     -4.18760361	      3.49413964	     -0.31372627	      1.19393904	      0.04725565	     88.13375233	     -6.80706943	     -0.64656048	     77.07057062	      1.34513521	     -0.73212376	    -29.36304242	      0.00000000	     64.33370109	     -6.40369921	      7.43159432	     65.96737641	      1.15134792	     -7.73350620	    -14.21534390	      0.00000000	    -48.02233504	      8.34850725	      0.56054659	     89.90166092	     -8.37861423	     15.77000377	     34.56393067	     85.59147485	      0.00000000	      0.00000000	     89.94010095	    -11.13029309	     30.22569874	     30.81001046	     72.00270572	      0.00000000	      0.00000000
      3.93333333	    -27.64556418	     -4.40491235	      3.53135504	     -0.31375168	      1.19377531	      0.04766002	     87.01256661	     -6.64212875	     -1.02333631	     75.10993749	      1.31091571	     -1.40962999	    -29.92360232	      0.00000000	     65.22824622	     -6.56595978	      7.77014243	     68.15414974	      1.18951431	     -6.86567422	    -13.86922020	      0.00000000	    -48.11794177	      8.44447789	      0.62838183	     89.90119150	     -8.29137641	     15.64715661	     34.51010237	     85.54755928	      0.00000000	      0.00000000	     89.93958028	    -11.15100145	     29.94584287	     30.89973637	     72.33789819	      0.00000000	      0.00000000
      3.94166667	    -27.54579095	     -3.95802318	      3.81431914	     -0.31373724	      1.19379205	      0.04719629	     85.89466265	     -6.89719023	     -0.73550388	     73.23906243	      1.27826278	     -1.45570987	    -29.90601703	      0.00000000	     65.92543307	     -6.05757673	      7.61767930	     70.08900563	      1.22328392	     -6.75843158	    -13.83207331	      0.00000000	    -48.17157992	      8.22247241	      0.15925932	     89.89894753	     -8.39987442	     15.59856364	     34.45240077	     85.53671004	      0.00000000	      0.00000000	     89.94053595	    -11.04733314	     29.93447592	     31.01239639	     72.35386899	      0.00000000	      0.00000000
      3.95000000	    -27.33589695	     -3.69033790	      3.98251609	     -0.31348139	      1.19374889	      0.04705058	     84.72526139	     -7.00049706	     -0.61794151	     71.40174281	      1.24619550	     -2.10406370	    -29.88426249	      0.00000000	     66.60280986	     -5.69710287	      7.70888689	     72.18041574	      1.25978591	     -6.13692077	    -13.93725049	      0.00000000	    -48.33612006	      8.06311830	     -0.25997770	     89.89854534	     -8.25950274	     15.57795681	     34.28959918	     85.51560942	      0.00000000	      0.00000000	     89.94048463	    -11.13957034	     29.80539964	     31.11277757	     72.40098951	      0.00000000	      0.00000000
      3.95833333	    -27.15391619	     -4.06370587	      4.01641021	     -0.31323387	      1.19392965	      0.04753496	     83.40699327	     -6.70966797	     -1.16855820	     69.34764918	      1.21034481	     -3.51731185	    -31.25694969	      0.00000000	     67.48188440	     -5.91800578	      8.24058075	     74.27238047	      1.29629758	     -5.52093098	    -13.41753272	      0.00000000	    -48.54413541	      8.26069131	      0.05164536	     89.89796529	     -8.33294528	     15.43088133	     34.30004756	     85.46175495	      0.00000000	      0.00000000	     89.94064728	    -11.00371857	     29.57770895	     31.15254336	     72.76002033	      0.00000000	      0.00000000
      3.96666667	    -27.03458061	     -3.67372737	      4.24440691	     -0.31302766	      1.19399672	      0.04713937	     82.33280815	     -6.98207803	     -1.02210573	     67.49321112	      1.17797876	     -4.35600668	    -31.04732549	      0.00000000	     68.21178043	     -5.43661646	      8.17913891	     76.17646305	      1.32953009	     -5.12743969	    -13.49674415	      0.00000000	    -48.62407002	      8.06094154	     -0.42132007	     89.89779841	     -8.32059964	     15.45583401	     34.16162435	     85.46271438	      0.00000000	      0.00000000	     89.94115493	    -10.99371255	     29.52386613	     31.22116226	     72.81200419	      0.00000000	      0.00000000
      3.97500000	    -26.91364478	     -3.32655636	      4.42889298	     -0.31281550	      1.19410765	      0.04677780	     81.22890140	     -7.18487382	     -0.88727866	     65.64525194	      1.14572578	     -5.38601947	    -30.89919671	      0.00000000	     68.95305180	     -4.99221537	      8.14475093	     78.06621060	      1.36251241	     -4.85961528	    -13.42405806	      0.00000000	    -48.71912013	      7.87320106	     -0.83302385	     89.89672922	     -8.30679402	     15.44219639	     34.08272409	     85.44965520	      0.00000000	      0.00000000	     89.94176244	    -10.97838194	     29.45322049	     31.27628057	     72.86630663	      0.00000000	      0.00000000
      3.98333333	    -26.75595069	     -3.02444247	      4.66178662	     -0.31246420	      1.19420305	      0.04652215	     80.06270922	     -7.35274721	     -0.70930453	     63.81628903	      1.11380436	     -6.50178393	    -30.83449842	      0.00000000	     69.74016534	     -4.56550807	      8.15560536	     79.99332266	      1.39614686	     -4.62771466	    -13.36473830	      0.00000000	    -48.84480535	      7.73229841	     -1.23306874	     89.89521739	     -8.29900444	     15.43382188	     33.97827471	     85.43516332	      0.00000000	      0.00000000	     89.94236206	    -10.94458097	     29.39129451	     31.31766020	     72.92392026	      0.00000000	      0.00000000
      3.99166667	    -26.63174226	     -2.75369982	      4.85861993	     -0.31212399	      1.19436173	      0.04625109	     78.91535741	     -7.51332318	     -0.60429240	     61.98101075	      1.08177271	     -7.79353867	    -30.81276600	      0.00000000	     70.50025460	     -4.17664218	      8.17936411	     81.77774510	      1.42729091	     -4.20968050	    -13.28678411	      0.00000000	    -48.95158429	      7.60959120	     -1.57503891	     89.89493634	     -8.29841711	     15.43494690	     33.85619692	     85.41943528	      0.00000000	      0.00000000	     89.94263299	    -10.92384100	     29.33396464	     31.35952896	     72.98969610	      0.00000000	      0.00000000
